<?xml version="1.0" encoding="UTF-8"?>
<svg width="113px" height="113px" viewBox="0 0 113 113" version="1.1" xmlns="http://www.w3.org/2000/svg" xmlns:xlink="http://www.w3.org/1999/xlink">
    <title>Slice 1</title>
    <defs>
        <linearGradient x1="0%" y1="49.999909%" x2="101.645468%" y2="49.999909%" id="linearGradient-1">
            <stop stop-color="#000033" offset="0%"></stop>
            <stop stop-color="#0099CC" offset="99.892117%"></stop>
            <stop stop-color="#0099CC" offset="100%"></stop>
        </linearGradient>
    </defs>
    <g id="Page-1" stroke="none" stroke-width="1" fill="none" fill-rule="evenodd">
        <g id="FTL-Logo-Winner" transform="translate(5.986663, 27.708008)" fill="url(#linearGradient-1)" fill-rule="nonzero">
            <path d="M51.4426654,58.5826652 C47.5119988,58.5826652 44.2973322,55.3693319 44.2973322,51.4386654 L44.2973322,51.4386654 C44.2973322,47.5093321 47.5119988,44.2946656 51.4426654,44.2946656 L51.4426654,44.2946656 L94.3066643,44.2946656 C98.2359975,44.2946656 101.450664,47.5093321 101.450664,51.4386654 L101.450664,51.4386654 C101.450664,55.3693319 98.2359975,58.5826652 94.3066643,58.5826652 L94.3066643,58.5826652 L51.4426654,58.5826652 Z M22.1493328,51.4386654 C22.1493328,47.5093321 25.362666,44.2946656 29.2933326,44.2946656 L29.2933326,44.2946656 C33.2239992,44.2946656 36.4373324,47.5093321 36.4373324,51.4386654 L36.4373324,51.4386654 C36.4373324,55.3693319 33.2239992,58.5826652 29.2933326,58.5826652 L29.2933326,58.5826652 C25.362666,58.5826652 22.1493328,55.3693319 22.1493328,51.4386654 M29.2933326,36.4359991 C25.362666,36.4359991 22.1493328,33.2213325 22.1493328,29.2906659 L22.1493328,29.2906659 C22.1493328,25.3599994 25.362666,22.1466661 29.2933326,22.1466661 L29.2933326,22.1466661 L72.1586649,22.1466661 C76.0879981,22.1466661 79.3026647,25.3599994 79.3026647,29.2906659 L79.3026647,29.2906659 C79.3026647,33.2213325 76.0879981,36.4359991 72.1586649,36.4359991 L72.1586649,36.4359991 L29.2933326,36.4359991 Z M0,29.2906659 C0,25.3599994 3.21466659,22.1466661 7.14399982,22.1466661 L7.14399982,22.1466661 C11.0746664,22.1466661 14.289333,25.3599994 14.289333,29.2906659 L14.289333,29.2906659 C14.289333,33.2213325 11.0746664,36.4359991 7.14399982,36.4359991 L7.14399982,36.4359991 C3.21466659,36.4359991 0,33.2213325 0,29.2906659 M22.1493328,7.14399982 C22.1493328,3.21333325 25.362666,0 29.2933326,0 L29.2933326,0 C33.2239992,0 36.4373324,3.21333325 36.4373324,7.14399982 L36.4373324,7.14399982 C36.4373324,11.0733331 33.2239992,14.2879996 29.2933326,14.2879996 L29.2933326,14.2879996 C25.362666,14.2879996 22.1493328,11.0733331 22.1493328,7.14399982" id="path5" transform="translate(50.725332, 29.291333) scale(-1, 1) rotate(-180.000000) translate(-50.725332, -29.291333) "></path>
        </g>
    </g>
</svg>